<svg width="200" height="200" viewBox="0 0 200 200" xmlns="http://www.w3.org/2000/svg">
  <defs>
    <linearGradient id="personalGradient" x1="0%" y1="0%" x2="100%" y2="100%">
      <stop offset="0%" style="stop-color:#1abc9c;stop-opacity:1" />
      <stop offset="100%" style="stop-color:#16a085;stop-opacity:1" />
    </linearGradient>
  </defs>
  
  <!-- Background circle -->
  <circle cx="100" cy="100" r="90" fill="#f8f9fa" stroke="#e9ecef" stroke-width="2"/>
  
  <!-- Calculator/Device -->
  <rect x="60" y="50" width="80" height="100" rx="8" fill="url(#personalGradient)" stroke="#2c3e50" stroke-width="2"/>
  
  <!-- Screen -->
  <rect x="70" y="60" width="60" height="25" rx="3" fill="#2c3e50"/>
  <text x="100" y="75" text-anchor="middle" font-family="Arial, sans-serif" font-size="12" font-weight="bold" fill="#27ae60">$2,450</text>
  
  <!-- Buttons -->
  <circle cx="80" cy="100" r="6" fill="#ffffff" opacity="0.9"/>
  <circle cx="100" cy="100" r="6" fill="#ffffff" opacity="0.9"/>
  <circle cx="120" cy="100" r="6" fill="#ffffff" opacity="0.9"/>
  
  <circle cx="80" cy="115" r="6" fill="#ffffff" opacity="0.9"/>
  <circle cx="100" cy="115" r="6" fill="#ffffff" opacity="0.9"/>
  <circle cx="120" cy="115" r="6" fill="#ffffff" opacity="0.9"/>
  
  <circle cx="80" cy="130" r="6" fill="#ffffff" opacity="0.9"/>
  <circle cx="100" cy="130" r="6" fill="#ffffff" opacity="0.9"/>
  <circle cx="120" cy="130" r="6" fill="#ffffff" opacity="0.9"/>
  
  <!-- AI Brain -->
  <circle cx="50" cy="70" r="20" fill="#ffffff" stroke="#e74c3c" stroke-width="3"/>
  <circle cx="45" cy="65" r="2" fill="#e74c3c"/>
  <circle cx="55" cy="65" r="2" fill="#e74c3c"/>
  <path d="M42 75 Q50 80 58 75" fill="none" stroke="#e74c3c" stroke-width="2"/>
  
  <!-- Neural connections -->
  <path d="M35 75 Q25 70 20 80" fill="none" stroke="#e74c3c" stroke-width="2"/>
  <path d="M65 75 Q75 70 80 80" fill="none" stroke="#e74c3c" stroke-width="2"/>
  <circle cx="20" cy="80" r="3" fill="#e74c3c"/>
  <circle cx="80" cy="80" r="3" fill="#e74c3c"/>
  
  <!-- Personal finance icons -->
  <circle cx="150" cy="120" r="15" fill="#f39c12"/>
  <text x="150" y="127" text-anchor="middle" font-family="Arial, sans-serif" font-size="14" font-weight="bold" fill="#ffffff">%</text>
</svg>